<svg preserveAspectRatio="xMidYMid meet" data-bbox="670 429.8 580 220.5" viewBox="670 429.8 580 220.5" xmlns="http://www.w3.org/2000/svg" data-type="color" role="presentation" aria-hidden="true" aria-labelledby="svgcid-7mvxp77f9hpw"><title id="svgcid-7mvxp77f9hpw"></title>
    <g>
        <path d="M738.8 560.9h-24.9l17.2-98.3h21.1c31.1 0 45.1 18.6 45.1 41.1 0 29.3-19.9 57.2-58.5 57.2m21.1-131.1H699l-29 164.5h67.2c57.6 0 100.4-37.4 100.4-95.3-.1-49.7-40.7-69.2-77.7-69.2" fill="#ffffff" data-color="1"></path>
        <path d="M1098.4 558.3c0-1.6.2-4.2.5-6.3l8.4-45.3h23.9l5.1-28.1h-24.6l5.3-30.7h-36.2l-5.3 30.7h-18.4v.1h-32.3l-38.3 75.8h-.5l-11.6-75.8h-40.7L960.4 594l-5.6 9.5c-5.6 10-10.7 15.6-21.4 15.6-1.6 0-3.4-.2-5.2-.5l-1.5 8.6-3.9 21.9c4 .7 8.5 1.2 13.2 1.2 27.4 0 39-13.9 52.5-38.3l59.8-105.1h22.7l-8.8 49c-.9 4.2-1.4 9.5-1.4 13.2 0 19.3 13.7 28.1 36 28.1 7.2 0 16-1.6 20.4-3.5l3.5-26.7c-2.8.7-6.5 1.4-10.2 1.4-7.4-.1-12.1-2.4-12.1-10.1" fill="#ffffff" data-color="1"></path>
        <path d="M1195.9 501.2c13.5 0 21.1 7.7 21.1 17.9 0 1.4 0 3-.2 4.6h-50.2c2.3-9.8 12.8-22.5 29.3-22.5m51.1 45.3c1.9-7.4 3-17 3-22.5 0-31.4-20.7-48.8-51.1-48.8-40.7 0-69.7 31.1-69.7 70.6 0 33.7 24.9 52 56.9 52 20.9 0 39.7-6.7 54.4-22.3l-23.5-18.4c-7 7.4-16 12.1-27.7 12.1-12.8 0-25.6-7.7-25.6-20.7 0-.5 0-1.2.2-2.1h83.1z" fill="#ffffff" data-color="1"></path>
        <path fill="#ffffff" d="m860.2 429.8-29 164.5h103.1l6.1-33.6h-64.6L899 429.8h-38.8z" data-color="1"></path>
    </g>
</svg>