<?xml version="1.0" encoding="utf-8"?>
<!-- Generator: Adobe Illustrator 24.0.1, SVG Export Plug-In . SVG Version: 6.00 Build 0)  -->
<svg version="1.1" id="Capa_1" xmlns="http://www.w3.org/2000/svg" xmlns:xlink="http://www.w3.org/1999/xlink" x="0px" y="0px"
	 viewBox="0 0 628.2 104.8" style="enable-background:new 0 0 628.2 104.8;" xml:space="preserve">
	<g uk-scrollspy="target: > *; cls: uk-animation-fade; delay: 150">
		<path d="M64.5,24.7l8.5-8.3C65.9,8.5,55.4,4.3,42.7,4.3C18.9,4.3,1.5,20.7,1.5,43.4c0,22.7,17.2,39.1,41,39.1
			c11.3,0,22.1-3.5,29.7-9.6V48.1H59.4v18.5l-0.2,0.1c-4.6,2.6-10,4-16,4c-16.3,0-28.1-11.5-28.1-27.3C15.2,27.3,26.8,16,43.4,16
			C51.7,16,58.6,18.9,64.5,24.7"/>
		<path d="M149.8,32.1c0-17-12.6-27.5-33-27.5H85v11.6h31.2c12.7,0,19.7,5.7,19.7,15.9s-7,15.9-19.7,15.9H85v34.2h13.8V59.6h18
			C137.2,59.6,149.8,49,149.8,32.1"/>
		<path d="M185.8,3.1c28,0,39.9,100.1,39.9,100.1S204.1,23,185.8,23c-18.3,0-36.4,65-36.4,65S159.3,3.1,185.8,3.1"/>
		<rect class="extra-gpa" x="235.1" y="4.8" width="6.3" height="77.3"/>
		<polygon class="extra-gpa" points="314.8,70.7 263.3,5 263.2,4.8 258,4.8 258,82.2 264.3,82.2 264.3,16.3 315.9,82 316,82.2 321.1,82.2 321.1,4.8 314.8,4.8 	"/>
		<polygon class="extra-gpa" points="394.5,70.7 343,5 342.9,4.8 337.7,4.8 337.7,82.2 344,82.2 344,16.3 395.5,82 395.7,82.2 400.8,82.2 400.8,4.8 394.5,4.8 	"/>
		<path class="extra-gpa" d="M488,23.4c-3.5-5.9-8.3-10.7-14.4-14c-6.1-3.4-13-5.1-20.5-5.1c-7.5,0-14.5,1.7-20.5,5.1c-6.1,3.4-10.9,8.1-14.4,14.1
			c-3.5,5.9-5.2,12.7-5.2,20c0,7.3,1.8,14.1,5.2,20c3.5,5.9,8.3,10.7,14.4,14.1c6.1,3.4,13,5.1,20.5,5.1c7.5,0,14.5-1.7,20.5-5.1
			c6.1-3.4,10.9-8.1,14.4-14c3.5-5.9,5.2-12.7,5.2-20.1C493.3,36.1,491.5,29.3,488,23.4z M482.4,60.6c-2.9,5.1-7,9.1-12.1,12
			c-5.1,2.9-10.9,4.3-17.2,4.3c-6.3,0-12.1-1.5-17.3-4.3c-5.1-2.9-9.2-6.9-12.2-12c-2.9-5.1-4.4-10.8-4.4-17.1c0-6.3,1.5-12,4.4-17.1
			c2.9-5.1,7-9.1,12.2-12c5.1-2.9,11-4.3,17.3-4.3c6.3,0,12.1,1.5,17.2,4.3c5.1,2.9,9.2,6.9,12.1,12c2.9,5.1,4.4,10.8,4.4,17.1
			C486.9,49.7,485.4,55.5,482.4,60.6z"/>
		<polygon class="extra-gpa" points="566.6,4.8 560,4.8 529.3,73.7 498.6,5 498.5,4.8 491.6,4.8 526,82 526.1,82.2 532.1,82.2 566.4,5.3 	"/>
		<path class="extra-gpa" d="M609.9,60.6l9.8,21.4l0.1,0.2h6.8L591.1,5L591,4.8h-6l-35.6,77.3h6.8l9.7-21.6l2.5-5.4l19.5-43l19.6,43L609.9,60.6z"/>
	</g>
</svg>
