<svg width="310" height="34" viewBox="0 0 310 34" fill="none" xmlns="http://www.w3.org/2000/svg">
<path d="M50.115 0C52.215 0 54.21 0.33 56.1 0.990001C57.99 1.65 59.6701 2.595 61.14 3.825C62.61 5.055 63.8101 6.57 64.7401 8.37C65.7001 10.17 66.3 12.21 66.54 14.49H59.0251C58.4851 12.09 57.405 10.245 55.785 8.955C54.165 7.635 52.305 6.975 50.205 6.975C48.825 6.975 47.565 7.215 46.425 7.695C45.315 8.145 44.355 8.79 43.545 9.63C42.735 10.47 42.105 11.49 41.655 12.69C41.205 13.89 40.98 15.21 40.98 16.65C40.98 18.15 41.1901 19.53 41.6101 20.79C42.0301 22.02 42.63 23.085 43.41 23.985C44.19 24.885 45.15 25.59 46.2901 26.1C47.4301 26.61 48.705 26.865 50.115 26.865C51.105 26.865 52.0801 26.685 53.0401 26.325C54.03 25.965 54.93 25.47 55.74 24.84C56.55 24.18 57.2401 23.4 57.8101 22.5C58.4101 21.57 58.8301 20.535 59.07 19.395H66.36C66.15 21.465 65.565 23.385 64.605 25.155C63.645 26.895 62.43 28.41 60.96 29.7C59.49 30.99 57.81 32.01 55.92 32.76C54.06 33.48 52.125 33.84 50.115 33.84C47.565 33.84 45.24 33.405 43.14 32.535C41.07 31.635 39.285 30.42 37.785 28.89C36.315 27.33 35.175 25.5 34.365 23.4C33.555 21.3 33.15 19.035 33.15 16.605C33.15 14.325 33.555 12.18 34.365 10.17C35.205 8.16 36.36 6.405 37.83 4.905C39.33 3.405 41.1151 2.22 43.1851 1.35C45.2851 0.45 47.595 0 50.115 0Z" fill="#D9D9D9"/>
<path d="M89.1401 33.03L78.025 0.899999H86.215L93.19 22.545L99.8951 0.899999H107.365L96.385 33.03H89.1401Z" fill="#D9D9D9"/>
<path d="M108.043 33.03V0.899999H133.738V7.47H115.873V13.365H130.318V19.665H115.873V26.46H133.783V33.03H108.043Z" fill="#D9D9D9"/>
<path d="M157.405 33.03L142.645 10.755V33.03H135.76V0.899999H145.84L157.09 18.585V0.899999H164.155V33.03H157.405Z" fill="#D9D9D9"/>
<path d="M174.561 33.03V7.875H165.111V0.899999H191.841V7.875H182.391V33.03H174.561Z" fill="#D9D9D9"/>
<path d="M213.797 0.899999H221.267V20.745C221.267 25.155 220.037 28.44 217.577 30.6C215.117 32.76 211.472 33.84 206.642 33.84C202.112 33.84 198.617 32.67 196.157 30.33C193.727 27.99 192.512 24.63 192.512 20.25V0.899999H200.342V19.53C200.342 20.64 200.447 21.66 200.657 22.59C200.897 23.49 201.272 24.27 201.782 24.93C202.322 25.56 203.012 26.055 203.852 26.415C204.722 26.775 205.787 26.955 207.047 26.955C208.367 26.955 209.462 26.79 210.332 26.46C211.202 26.13 211.892 25.65 212.402 25.02C212.912 24.39 213.272 23.625 213.482 22.725C213.692 21.825 213.797 20.805 213.797 19.665V0.899999Z" fill="#D9D9D9"/>
<path d="M245.855 33.03C245.495 32.55 245.24 31.92 245.09 31.14C244.97 30.33 244.865 29.475 244.775 28.575C244.685 27.675 244.58 26.76 244.46 25.83C244.37 24.9 244.16 24.06 243.83 23.31C243.53 22.56 243.08 21.96 242.48 21.51C241.88 21.03 241.04 20.79 239.96 20.79H231.59V33.03H223.76V0.899999H240.545C242.075 0.899999 243.575 1.02 245.045 1.26C246.545 1.5 247.865 1.965 249.005 2.655C250.175 3.315 251.12 4.26 251.84 5.49C252.56 6.72 252.92 8.31 252.92 10.26C252.92 12.12 252.395 13.74 251.345 15.12C250.325 16.47 248.915 17.415 247.115 17.955C248.225 18.435 249.125 19.05 249.815 19.8C250.505 20.52 251.045 21.345 251.435 22.275C251.825 23.175 252.11 24.15 252.29 25.2C252.47 26.22 252.605 27.255 252.695 28.305C252.755 29.175 252.83 30.015 252.92 30.825C253.04 31.635 253.385 32.37 253.955 33.03H245.855ZM231.59 7.245V14.625H241.58C242.69 14.625 243.545 14.31 244.145 13.68C244.775 13.05 245.09 12.135 245.09 10.935C245.09 9.585 244.73 8.64 244.01 8.1C243.29 7.53 242.36 7.245 241.22 7.245H231.59Z" fill="#D9D9D9"/>
<path d="M255.128 33.03V0.899999H280.823V7.47H262.958V13.365H277.403V19.665H262.958V26.46H280.868V33.03H255.128Z" fill="#D9D9D9"/>
<path d="M302.15 10.485C302.03 9.645 301.745 8.955 301.295 8.415C300.875 7.875 300.35 7.455 299.72 7.155C299.09 6.855 298.4 6.645 297.65 6.525C296.93 6.405 296.225 6.345 295.535 6.345C295.115 6.345 294.56 6.375 293.87 6.435C293.18 6.495 292.505 6.645 291.845 6.885C291.185 7.095 290.615 7.44 290.135 7.92C289.685 8.37 289.46 8.985 289.46 9.765C289.46 10.335 289.61 10.815 289.91 11.205C290.24 11.595 290.63 11.91 291.08 12.15C291.56 12.39 292.07 12.585 292.61 12.735C293.18 12.855 293.705 12.96 294.185 13.05L300.98 14.22C303.89 14.76 306.11 15.735 307.64 17.145C309.17 18.525 309.935 20.535 309.935 23.175C309.935 25.185 309.56 26.88 308.81 28.26C308.06 29.61 307.04 30.705 305.75 31.545C304.49 32.355 303.035 32.94 301.385 33.3C299.735 33.66 298.01 33.84 296.21 33.84C294.59 33.84 292.94 33.63 291.26 33.21C289.58 32.82 288.035 32.175 286.625 31.275C285.215 30.375 284.015 29.205 283.025 27.765C282.035 26.325 281.405 24.555 281.135 22.455H288.155C288.395 23.445 288.815 24.27 289.415 24.93C290.015 25.56 290.705 26.07 291.485 26.46C292.295 26.82 293.15 27.075 294.05 27.225C294.98 27.375 295.895 27.45 296.795 27.45C297.125 27.45 297.635 27.42 298.325 27.36C299.045 27.3 299.765 27.165 300.485 26.955C301.205 26.715 301.835 26.37 302.375 25.92C302.915 25.44 303.185 24.795 303.185 23.985C303.185 22.965 302.9 22.26 302.33 21.87C301.76 21.48 301.07 21.18 300.26 20.97C299.15 20.7 297.935 20.475 296.615 20.295C295.325 20.085 294.035 19.845 292.745 19.575C291.455 19.305 290.195 18.96 288.965 18.54C287.765 18.12 286.7 17.565 285.77 16.875C284.84 16.155 284.09 15.255 283.52 14.175C282.98 13.095 282.71 11.76 282.71 10.17C282.71 8.28 283.085 6.69 283.835 5.4C284.585 4.11 285.575 3.06 286.805 2.25C288.035 1.44 289.43 0.87 290.99 0.539998C292.58 0.179999 294.185 0 295.805 0C297.455 0 299.06 0.21 300.62 0.63C302.18 1.05 303.575 1.695 304.805 2.565C306.035 3.405 307.04 4.485 307.82 5.805C308.6 7.125 309.035 8.685 309.125 10.485H302.15Z" fill="#D9D9D9"/>
<path d="M15.437 0.0300012L0 33.03H9.35L11.25 28.33H21.4L19.25 21.88H13.65L18.5 9.73L22.7667 20.53L26.1217 29.2494L27.65 33.03H37.35L22.6987 0.0300012H15.437Z" fill="#D9D9D9"/>
</svg>
