<svg width="120" height="120" viewBox="0 0 120 120" fill="none" xmlns="http://www.w3.org/2000/svg">
<rect width="120" height="120" rx="60" fill="white"/>
<circle cx="60" cy="60" r="46.5" stroke="black" stroke-width="3"/>
<rect x="12" y="57" width="96" height="3" fill="white"/>
<path d="M75.315 42.97C77.415 42.97 79.41 43.3 81.3 43.96C83.19 44.62 84.87 45.565 86.34 46.795C87.81 48.025 89.01 49.54 89.94 51.34C90.9 53.14 91.5 55.18 91.74 57.46H84.225C83.685 55.06 82.605 53.215 80.985 51.925C79.365 50.605 77.505 49.945 75.405 49.945C74.025 49.945 72.765 50.185 71.625 50.665C70.515 51.115 69.555 51.76 68.745 52.6C67.935 53.44 67.305 54.46 66.855 55.66C66.405 56.86 66.18 58.18 66.18 59.62C66.18 61.12 66.39 62.5 66.81 63.76C67.23 64.99 67.83 66.055 68.61 66.955C69.39 67.855 70.35 68.56 71.49 69.07C72.63 69.58 73.905 69.835 75.315 69.835C76.305 69.835 77.28 69.655 78.24 69.295C79.23 68.935 80.13 68.44 80.94 67.81C81.75 67.15 82.44 66.37 83.01 65.47C83.61 64.54 84.03 63.505 84.27 62.365H91.56C91.35 64.435 90.765 66.355 89.805 68.125C88.845 69.865 87.63 71.38 86.16 72.67C84.69 73.96 83.01 74.98 81.12 75.73C79.26 76.45 77.325 76.81 75.315 76.81C72.765 76.81 70.44 76.375 68.34 75.505C66.27 74.605 64.485 73.39 62.985 71.86C61.515 70.3 60.375 68.47 59.565 66.37C58.755 64.27 58.35 62.005 58.35 59.575C58.35 57.295 58.755 55.15 59.565 53.14C60.405 51.13 61.56 49.375 63.03 47.875C64.53 46.375 66.315 45.19 68.385 44.32C70.485 43.42 72.795 42.97 75.315 42.97Z" fill="black"/>
<path d="M44.437 43L29 76H38.35L40.25 71.3H50.4L48.25 64.85H42.65L47.5 52.7L51.7667 63.5L55.1217 72.2194L56.65 76H66.35L51.6987 43H44.437Z" fill="black"/>
</svg>
