<svg width="9" height="9" viewBox="0 0 9 9" fill="none" xmlns="http://www.w3.org/2000/svg">
<path d="M0.214435 8.78556C0.332866 8.90399 0.524882 8.90399 0.643313 8.78556L8.35261 1.07618L8.17841 6.03958C8.17552 6.1199 8.20475 6.19822 8.25963 6.25709C8.3145 6.31596 8.39053 6.35068 8.47095 6.35347C8.64285 6.35158 8.78493 6.21888 8.79829 6.04748L8.99982 0.313971C9.00271 0.229863 8.97049 0.148344 8.91102 0.0888785C8.85146 0.0293136 8.76994 -0.00271469 8.68583 0.000180545L2.95239 0.20171C2.87018 0.202709 2.79165 0.23633 2.73438 0.2952C2.67692 0.354066 2.64529 0.433387 2.64628 0.515602C2.64738 0.597915 2.6811 0.676339 2.73997 0.733612C2.79894 0.790982 2.87826 0.822612 2.96037 0.821514L7.92397 0.647059L0.214434 8.35668C0.096005 8.47512 0.0960054 8.66713 0.214435 8.78556Z" fill="#C0C0C0"/>
</svg>
