<svg preserveAspectRatio="xMidYMid meet" data-bbox="-0.001 0 121.784 22.001" xmlns="http://www.w3.org/2000/svg" viewBox="-0.001 0 121.784 22.001" height="22" width="122" data-type="color" role="presentation" aria-hidden="true" aria-labelledby="svgcid-8fz4nnvpqdqn"><title id="svgcid-8fz4nnvpqdqn"></title>
    <g>
        <path fill="#ffffff" d="M31.442 10.16a2.15 2.15 0 0 1 1.062-.208 4.153 4.153 0 0 1 1.514.301 3.452 3.452 0 0 1 1.435 1.04l2.375-2.403a5.582 5.582 0 0 0-2.332-1.736 8.258 8.258 0 0 0-3.128-.582 6.716 6.716 0 0 0-2.813.546 4.449 4.449 0 0 0-1.858 1.485 4.262 4.262 0 0 0-.186 4.204c.29.5.702.917 1.198 1.213.487.302 1.01.543 1.557.718l1.557.444c.42.11.827.266 1.212.467a.81.81 0 0 1 .481.717.66.66 0 0 1-.395.596 2.333 2.333 0 0 1-1.133.222 4.816 4.816 0 0 1-1.966-.394 4.627 4.627 0 0 1-1.557-1.105l-2.375 2.403a7.008 7.008 0 0 0 1.65 1.292 8.956 8.956 0 0 0 4.413 1.162 6.207 6.207 0 0 0 3.946-1.148 3.723 3.723 0 0 0 1.435-3.085 3.926 3.926 0 0 0-.46-2.03 3.725 3.725 0 0 0-1.205-1.25 7.01 7.01 0 0 0-1.557-.717 21.688 21.688 0 0 0-1.557-.466 5.66 5.66 0 0 1-1.198-.438.717.717 0 0 1-.466-.653.646.646 0 0 1 .351-.595Z" data-color="1"></path>
        <path fill="#ffffff" d="M49.423 7.498a6.938 6.938 0 0 0-3.473-.847 7.312 7.312 0 0 0-3.63.904 7.023 7.023 0 0 0-2.54 9.608 6.702 6.702 0 0 0 2.64 2.475 8.108 8.108 0 0 0 3.832.882 7.877 7.877 0 0 0 3.063-.573 6.255 6.255 0 0 0 2.375-1.715l-2.296-2.296a4.018 4.018 0 0 1-1.392 1.026 4.55 4.55 0 0 1-1.78.337 3.587 3.587 0 0 1-1.836-.452 2.985 2.985 0 0 1-1.205-1.284 3.587 3.587 0 0 1-.23-.589h9.5a9.36 9.36 0 0 0 .15-.918 7.175 7.175 0 0 0-.818-4.19 6.228 6.228 0 0 0-2.36-2.368Zm-5.152 2.798a3.18 3.18 0 0 1 1.708-.452 3.007 3.007 0 0 1 1.571.395c.436.27.775.672.969 1.148.1.23.171.47.215.717h-5.783c.054-.184.121-.364.201-.538a3.021 3.021 0 0 1 1.12-1.27Z" data-color="1"></path>
        <path fill="#ffffff" d="M63.866 8.058a4.793 4.793 0 0 0-1.241-.861 5.532 5.532 0 0 0-2.418-.517 6.048 6.048 0 0 0-3.265.897 6.458 6.458 0 0 0-2.267 2.46 7.978 7.978 0 0 0 0 7.097 6.458 6.458 0 0 0 2.267 2.46c.98.608 2.113.92 3.265.898a5.64 5.64 0 0 0 2.432-.517 4.819 4.819 0 0 0 1.227-.803v1.083h4.097V6.975h-4.097v1.083Zm-2.812 8.667a2.869 2.869 0 0 1-1.529-.41 2.87 2.87 0 0 1-1.069-1.118 3.587 3.587 0 0 1 0-3.25 3.085 3.085 0 0 1 4.155-1.106c.442.263.8.646 1.033 1.105.258.509.387 1.073.373 1.643a3.214 3.214 0 0 1-.818 2.253 2.822 2.822 0 0 1-2.145.883Z" data-color="1"></path>
        <path fill="#ffffff" d="M96.54 7.555a8.05 8.05 0 0 0-7.425 0 6.995 6.995 0 0 0-2.418 2.225 1.99 1.99 0 0 1-.258.3 2.008 2.008 0 0 1-2.87 0 1.834 1.834 0 0 1-.288-.336 6.392 6.392 0 0 0-2.116-2.153 6.307 6.307 0 0 0-3.35-.897 5.783 5.783 0 0 0-2.455.517c-.36.163-.7.367-1.011.61V1.457h-4.176v18.776h4.168v-.983c.328.28.686.522 1.07.718a5.41 5.41 0 0 0 2.453.56 6.25 6.25 0 0 0 3.351-.897 6.306 6.306 0 0 0 2.153-2.224c.078-.107.164-.208.258-.302a2.008 2.008 0 0 1 2.87 0c.11.102.208.215.294.337a6.867 6.867 0 0 0 2.397 2.203 7.992 7.992 0 0 0 7.411 0 6.945 6.945 0 0 0 2.598-2.497c.64-1.073.97-2.302.954-3.551a6.654 6.654 0 0 0-.954-3.538 6.816 6.816 0 0 0-2.655-2.504Zm-16.846 7.642a2.87 2.87 0 0 1-1.047 1.105 3.164 3.164 0 0 1-3.086 0 2.79 2.79 0 0 1-1.054-1.105 3.443 3.443 0 0 1-.38-1.636 3.53 3.53 0 0 1 .365-1.643 2.655 2.655 0 0 1 1.055-1.105 3.007 3.007 0 0 1 1.557-.395c.54-.01 1.074.126 1.543.395a2.77 2.77 0 0 1 1.047 1.105c.264.506.395 1.072.38 1.643a3.3 3.3 0 0 1-.38 1.636Zm15.785 0a2.647 2.647 0 0 1-1.047 1.105 3.07 3.07 0 0 1-1.579.394 3.007 3.007 0 0 1-1.557-.394 2.77 2.77 0 0 1-1.069-1.12 3.694 3.694 0 0 1 0-3.264 2.777 2.777 0 0 1 1.069-1.105 3.007 3.007 0 0 1 1.557-.395 3.043 3.043 0 0 1 1.571.395c.44.263.802.64 1.048 1.09.264.502.395 1.063.38 1.63a3.587 3.587 0 0 1-.387 1.678l.014-.014Z" data-color="1"></path>
        <path fill="#ffffff" d="M115.39 10.16a2.19 2.19 0 0 1 1.069-.208 4.214 4.214 0 0 1 1.514.301c.558.22 1.052.578 1.435 1.04l2.375-2.403a5.604 5.604 0 0 0-2.339-1.737 8.225 8.225 0 0 0-3.122-.58 6.694 6.694 0 0 0-2.812.545 4.41 4.41 0 0 0-1.859 1.485 4.31 4.31 0 0 0-.193 4.204c.29.502.706.92 1.205 1.213.487.303 1.01.544 1.557.717l1.557.445c.42.11.827.267 1.213.467a.821.821 0 0 1 .48.717.668.668 0 0 1-.401.596c-.353.17-.743.246-1.134.222a4.705 4.705 0 0 1-3.523-1.5l-2.375 2.404c.486.51 1.045.945 1.658 1.292.659.38 1.366.669 2.102.86a8.9 8.9 0 0 0 2.303.302 6.205 6.205 0 0 0 3.946-1.148 3.703 3.703 0 0 0 1.435-3.085 3.913 3.913 0 0 0-.466-2.03 3.703 3.703 0 0 0-1.198-1.25 7.198 7.198 0 0 0-1.557-.717 22.891 22.891 0 0 0-1.557-.466 5.591 5.591 0 0 1-1.206-.438.723.723 0 0 1-.459-.653.64.64 0 0 1 .352-.595Z" data-color="1"></path>
        <path fill="#ffffff" d="M106.313 10.418v4.922c0 1.191.388 1.816 1.608 1.816.422.003.842-.068 1.241-.209l.057 3.107a8.02 8.02 0 0 1-2.468.395c-3.444 0-4.585-1.844-4.585-4.592v-5.439h-2.073V7.225h2.045V3.832h4.175v3.393h3.036v3.193h-3.036Z" data-color="1"></path>
        <path fill="#ffffff" d="M2.95 5.898a2.949 2.949 0 0 0 2.103-.876 2.748 2.748 0 0 1 1.959-.81 2.72 2.72 0 0 1 1.951.81 2.949 2.949 0 1 0 0-4.132 2.77 2.77 0 0 1-3.91 0A2.942 2.942 0 1 0 2.95 5.912v-.014Z" data-color="1"></path>
        <path fill="#ffffff" d="M2.95 13.94a2.927 2.927 0 0 0 2.103-.882 2.749 2.749 0 0 1 1.959-.81 2.72 2.72 0 0 1 1.951.81 2.949 2.949 0 1 0 0-4.125 2.77 2.77 0 0 1-3.91 0 2.942 2.942 0 1 0-2.102 5.022v-.014Z" data-color="1"></path>
        <path fill="#ffffff" d="M19.18 8.05a2.942 2.942 0 0 0-2.102 5.023 2.747 2.747 0 0 1 .81 1.959 2.719 2.719 0 0 1-.81 1.951 2.76 2.76 0 0 1-3.91 0 2.966 2.966 0 0 0-4.205 0 2.72 2.72 0 0 1-1.951.811 2.748 2.748 0 0 1-1.96-.81 2.949 2.949 0 1 0 0 4.132 2.77 2.77 0 0 1 3.911 0 2.941 2.941 0 0 0 4.205 0 2.77 2.77 0 0 1 3.91 0 2.943 2.943 0 0 0 4.197-4.126 2.768 2.768 0 0 1 0-3.917A2.942 2.942 0 0 0 19.18 8.05Z" data-color="1"></path>
        <path fill="#ffffff" d="M19.18 5.898a2.949 2.949 0 1 0 0-5.898 2.949 2.949 0 0 0 0 5.898Z" data-color="1"></path>
    </g>
</svg>