<svg xmlns="http://www.w3.org/2000/svg" viewBox="0 0 1211.53 251.23"><defs><style>.cls-1{fill:#00bf6f;}.cls-2{fill:#1d1d1b;}</style></defs><g id="RVB"><g id="LivingPackets"><g id="LivingPackets-2" data-name="LivingPackets"><g id="Enveloppe"><path class="cls-1" d="M133.69,85l36.67,47.67-17.89,42.93-4.56.63-9.23-64.87s-5.37-22.44-5.63-24.4Z"/><path class="cls-1" d="M234,85.65c-.45.64-21.82,39.27-21.82,39.27l36,38.82L236.43,82.62Z"/><path class="cls-2" d="M254.32,161.08c-3.28-12.7-5.81-24.4-7.65-35.78-1.33-8.29-2.46-16.19-3.29-23.52-.63-5.82-1.39-23-1.45-26.94a8.91,8.91,0,0,0-.88-4.42c-2.22-4.43-7.59-5.82-12.52-6.64-12.33-2-32.12-1.27-46.47-.32l-3,.19c-16.06,1-32.75,2.09-41.6,6.32-4,2-6.51,4.68-7.27,8.16-1,4.3.76,9,5.18,14.54s9.93,13,14.61,19.48c2.34,3.22,4.49,6.19,6.39,8.78q1.23,1.71,2.65,3.61c2.15,3,4.49,6.26,7.08,9.36-1.26,2.84-3,6.76-4.87,11.06-5.31,12-9,20.49-11.5,26.56-3.8-19.41-8.86-51-9.23-59.94a4.18,4.18,0,1,0-8.35.38c.32,6.57,3.16,25.79,5.69,40.9,2,12.14,5.82,33.2,7.9,37.56,2.72,5.56,9.17,8.28,21,8.28,9.17,0,21.63-1.64,38.07-4.86a334.26,334.26,0,0,0,33.32-8.41c1.64-.51,3-1,4.42-1.33a46.8,46.8,0,0,0,7.34-2.59,22.91,22.91,0,0,0,2-1.14C256.47,177.33,257.29,172.4,254.32,161.08ZM235.17,102.6c.82,7.52,2,15.62,3.35,24,1.32,8.66,3.09,17.45,5.31,26.68-8.85-9.92-21.12-23-27.44-29.52l.63-1.08c2.91-4.93,10.81-18.46,17.39-30.35C234.66,96.47,234.91,100.32,235.17,102.6Zm-69.3,17.2c-1.08-1.39-2-2.66-2.85-3.8-1.89-2.53-4-5.5-6.32-8.66-4.8-6.57-10.18-14-14.86-19.85-3.66-4.55-3.66-6.77-3.54-7.46.26-1.08,1.65-2,2.78-2.53,7.4-3.54,23.9-4.62,38.51-5.5l3-.19c6.39-.38,15.87-.89,25-.89a139.26,139.26,0,0,1,19.66,1.14c5.76.89,6.39,2.09,6.39,2.09a.28.28,0,0,1,.06.19v.5c-.13.89-.69,2.91-3,7.15-6.7,12.39-16.63,29.4-20.42,35.91-7.34-6.58-14.29-10.31-22.51-8.47C181,111,175,116.51,170.11,125.61,168.59,123.65,167.2,121.69,165.87,119.8Zm40,5.24c-4.49,7.4-9.61,14.36-15.87,15.12-4.8.56-9.67-3-14.22-7.72,4-8.66,8.85-14,13.72-15S198.87,118.47,205.89,125Zm41.54,47.87a1.85,1.85,0,0,1-1,1.2,34.54,34.54,0,0,1-6.19,2.08c-1.33.38-2.79.83-4.49,1.33a334.28,334.28,0,0,1-32.56,8.22c-29.91,5.88-42.18,5.25-47.11,3.35-1.7-.82-2.65-2-2.65-3.6.57-3.73,10.18-25.42,15.3-37.11,1.26-2.85,2.4-5.51,3.41-7.78,4.93,4.61,10.5,8,16.69,8,.7,0,1.39-.06,2.09-.12,9.23-1.08,15.74-9.11,20.93-17.33,11.51,11.89,33.19,35.66,35,38.57A4.55,4.55,0,0,1,247.43,172.91Z"/><path class="cls-2" d="M118,122.07H83.23a4.18,4.18,0,0,0,0,8.35H118a4.17,4.17,0,0,0,4.17-4.17A4.22,4.22,0,0,0,118,122.07Z"/><path class="cls-2" d="M104.92,143.63H96.83a4.18,4.18,0,1,0,0,8.35h8.09a4.18,4.18,0,0,0,0-8.35Z"/></g></g></g><path class="cls-1" d="M1122.51,105.32a11.18,11.18,0,1,1,11.17-11.17A11.18,11.18,0,0,1,1122.51,105.32Zm0-20.25a9.08,9.08,0,1,0,9.08,9.08A9.09,9.09,0,0,0,1122.51,85.07Z"/><path class="cls-1" d="M1120.25,95.16V100h-2.17V88.25h5c2.53,0,3.88,1.38,3.88,3.21a2.76,2.76,0,0,1-1.82,2.78c.72.23,1.58.88,1.58,3v.55a8.71,8.71,0,0,0,.17,2.28h-2.11a8.19,8.19,0,0,1-.23-2.61v-.2c0-1.42-.38-2.07-2.35-2.07Zm0-1.79h2.28c1.54,0,2.16-.58,2.16-1.68S1124,90,1122.63,90h-2.38Z"/><path class="cls-1" d="M711.31,79.9H678.44v92.4h12.78V143.45s22.28-11,30.68-15a25.78,25.78,0,0,0,14.24-23C736.87,91.59,725.55,80.27,711.31,79.9Zm5.48,37.25c-4,1.83-25.2,11.69-25.2,11.69V92.69h19.35a12.94,12.94,0,0,1,12.79,12.78A13.38,13.38,0,0,1,716.79,117.15ZM947.58,92.69h42v12H959.64v19.35a29,29,0,0,1,11.68-2.19h2.56v12.42s-5.11-.73-9.13,1.46c-4,1.82-5.48,6.57-5.48,9.49V161h30V173h-42v-49.3Zm53.69,0h54v12h-20.45V172.3h-12.78V104.74h-20.45v-12ZM864.32,163.17A38.88,38.88,0,0,1,853,170.84a37.82,37.82,0,0,1-15.7,3.28,39.05,39.05,0,0,1-15.7-3.28,44.57,44.57,0,0,1-12.79-8.77,41.36,41.36,0,0,1-8.76-13.15,40.87,40.87,0,0,1,0-32.13,41.36,41.36,0,0,1,8.76-13.15,44.34,44.34,0,0,1,12.79-8.76,36.62,36.62,0,0,1,15.7-3.29A37.83,37.83,0,0,1,853,94.88c1.46.73,2.56,1.09,4,1.82l-9.13,9.86h0a26.7,26.7,0,0,0-21.18,0,23.93,23.93,0,0,0-8.4,6.21,26.13,26.13,0,0,0-5.84,9.13,29.32,29.32,0,0,0-2.2,11,26.7,26.7,0,0,0,2.2,10.95,29.91,29.91,0,0,0,5.84,9.13,27.83,27.83,0,0,0,8.4,6.21,26.7,26.7,0,0,0,21.18,0,28,28,0,0,0,6.94-4.38Zm59.53,9.13-28.49-44.92-8.4,8.4V172.3H874.91V92.69H887V120.8l27.76-28.11h14.61l-24.84,25.19L937,171.93H923.85Zm-199,0H738.7l8.76-19.72h27.76l9.13,19.72h13.87L761,89.4Zm46-30.68H750.75L761,119.71Z"/><path class="cls-1" d="M1106.17,135.13A34.48,34.48,0,0,0,1099,129a81.8,81.8,0,0,0-11.12-6,41.37,41.37,0,0,1-6.77-3.76,15.79,15.79,0,0,1-3.44-3.17,5.86,5.86,0,0,1-1.23-2.47,10.71,10.71,0,0,1-.16-1.66c0-2.58.6-4.41,1.82-5.48a9.23,9.23,0,0,1,7-2.69,8.51,8.51,0,0,1,3.6.76,10.51,10.51,0,0,1,3,2,8.68,8.68,0,0,1,2,2.9,9.6,9.6,0,0,1,.51,1.68l11.66-6.7,0-.08a23.59,23.59,0,0,0-4.78-7.15,22.39,22.39,0,0,0-15.91-6.6,23.76,23.76,0,0,0-9.13,1.77,21.71,21.71,0,0,0-7.41,5,19.72,19.72,0,0,0-4.51,6.87,20.49,20.49,0,0,0-1.4,8.06,18,18,0,0,0,2.1,8.38,23.93,23.93,0,0,0,4.94,6.34,34.17,34.17,0,0,0,6.45,4.62q3.48,1.93,6.71,3.33a38.31,38.31,0,0,1,8.59,4.72,20.06,20.06,0,0,1,4.36,4.41,8.51,8.51,0,0,1,1.5,3.65c.11,1.08.16,1.9.16,2.47a9.73,9.73,0,0,1-1.29,5.27,9.6,9.6,0,0,1-3.17,3.17,12.74,12.74,0,0,1-4,1.56,19.67,19.67,0,0,1-3.82.43,11.85,11.85,0,0,1-8.59-3.6,12.72,12.72,0,0,1-2.58-4,12.88,12.88,0,0,1-1-5h-13.21a26,26,0,0,0,1.88,9.84,25.5,25.5,0,0,0,5.42,8.32,23.68,23.68,0,0,0,8.22,5.7,25.48,25.48,0,0,0,9.83,1.93q10.86,0,17.73-5.59a19.43,19.43,0,0,0,2.85-2.74,22.8,22.8,0,0,0,4.72-8.91,23.39,23.39,0,0,0,.81-6.4,26.84,26.84,0,0,0-1.18-8.11A20.24,20.24,0,0,0,1106.17,135.13Z"/><path class="cls-2" d="M560.12,92.69h12v82.89l-51.12-55.14V172.3H509V89l51.12,55.51Zm-170.54,15.7V172.3H376.8V108.39Zm65-15.7H468.1l-34.33,82.89L399.44,92.69H413l20.82,50.39Zm36.89,15.7V172.3H478.32V108.39ZM323.12,159.15h39.44V172.3H310V79.9h12.78v79.25Zm155.2-57.34V92.69H491.1v9.12Zm-101.52,0V92.69h12.78v9.12Z"/><path class="cls-2" d="M663,126.9v6.6a54.72,54.72,0,0,1-2.13,16,34.13,34.13,0,0,1-7,12.05q-11.16,12.57-28.41,12.57A39.07,39.07,0,0,1,596.59,162a40.32,40.32,0,0,1-12-29.3,41.67,41.67,0,0,1,41.92-41.81,40.7,40.7,0,0,1,17.55,3.84,40.19,40.19,0,0,1,6.29,3.93l-7.62,8.77a26.93,26.93,0,0,0-16-5.11,28.72,28.72,0,0,0-21.35,8.78q-8.61,8.61-8.62,21.6a28.45,28.45,0,0,0,9.61,22.08q9,8,19.48,8.05a24.17,24.17,0,0,0,7-1,24.71,24.71,0,0,0,9-5,23.13,23.13,0,0,0,7.86-13,53.61,53.61,0,0,0,.77-6h-34.3c.26-.52.53-1.05.85-1.57a18.55,18.55,0,0,1,8.37-7.85,29,29,0,0,1,12.45-2.51H663Z"/></g></svg>